# xmcd
#
# Track frame offsets: 
#        150
#        15885
#        26745
#        43581
#        62593
#        83705
#        98808
#        119963
#        136111
#        153600
#        176277
#        195128
#        208734
#        227400
#
# Disc length: 3282 seconds
#
# Revision: 0
# Processed by: cddbd v1.5.2PL0 Copyright (c) Steve Scherf et al.
# Submitted via: ExactAudioCopyFreeDBPlugin 1.0
#
DISCID=a90cd00e
DTITLE=Jim Quick and Coastline - All Time Coastline
DYEAR=2012
DGENRE=Blues
TTITLE0=Sweat
TTITLE1=It's Gonna Rain
TTITLE2=Late At Night
TTITLE3=New Old Songs
TTITLE4=She Poured It On
TTITLE5=Swamps of the Old Santee
TTITLE6=Take It All
TTITLE7=My Fault
TTITLE8=Tiki Bar
TTITLE9=You're the Boss, You're the Best
TTITLE10=Got Me Goin'
TTITLE11=Be Young,Be Foolish, Be Happy
TTITLE12=Roadrunner
TTITLE13=My Little Lucy
EXTD=
EXTT0=
EXTT1=
EXTT2=
EXTT3=
EXTT4=
EXTT5=
EXTT6=
EXTT7=
EXTT8=
EXTT9=
EXTT10=
EXTT11=
EXTT12=
EXTT13=
PLAYORDER=
